<svg xmlns="http://www.w3.org/2000/svg" xmlns:xlink="http://www.w3.org/1999/xlink" fill="none" stroke="none" stroke-linecap="square" stroke-miterlimit="10" version="1.1" viewBox="0 0 800 600"><clipPath id="p.0"><path d="m0 0l800.0 0l0 600.0l-800.0 0l0 -600.0z" clip-rule="nonzero"/></clipPath><g clip-path="url(#p.0)"><path fill="#000" fill-opacity="0" fill-rule="evenodd" d="m0 0l800.0 0l0 600.0l-800.0 0z"/><path fill="#000" fill-rule="evenodd" d="m539.27386 295.97318l-15.51178 -18.527618l91.38129 -69.99475c0.58862305 -0.45091248 1.1114502 -0.98306274 1.5574951 -1.5233307l33.88965 -45.46019l41.13385 -14.5160675l18.409912 21.992325l-23.809204 35.29283l-53.709595 21.70253c-0.71484375 0.21922302 -1.3717041 0.58862305 -1.9711914 1.1126709l-91.37042 69.9216zm78.77826 238.13559c-19.30841 -2.043335 -37.384216 -11.262573 -50.01172 -26.347229c-18.55487 -22.08194 -21.541138 -52.64975 -7.812317 -77.77524c1.5491943 -2.773468 1.2457275 -6.1098633 -0.8467407 -8.606934l-162.11902 -193.66574c-1.428009 -1.6502075 -3.4265442 -2.6810303 -5.555908 -2.906372c-0.9972534 -0.105529785 -2.0267334 -0.03440857 -3.0390625 0.23435974c-9.168671 2.367752 -18.524841 3.0005035 -27.614166 2.03862c-19.301453 -2.0426025 -37.409058 -11.271973 -50.015625 -26.334167c-15.788727 -18.777542 -20.360016 -43.63829 -12.92276 -66.125305l43.017883 51.46971c1.4533386 1.6956482 3.4900818 2.6809845 5.60318 2.904602c2.1130676 0.22363281 4.3048706 -0.31422424 6.073456 -1.6689148l51.721405 -39.683594c1.6834106 -1.2894287 2.8213196 -3.1520386 3.0646973 -5.2556c0.24334717 -2.1035767 -0.43301392 -4.2302094 -1.7809448 -5.8404236l-43.023773 -51.398308c4.89447 -0.40715027 9.784027 -0.34438324 14.600647 0.16534424c19.282867 2.0406342 37.390198 11.251961 49.96396 26.27243c18.544312 22.15284 21.615753 52.655403 7.8102417 77.77276c-1.5491943 2.7734528 -1.1752014 6.1916046 0.914917 8.688431l162.11905 193.66576c1.3479004 1.610199 3.38031 2.6333618 5.5026855 2.8579712c1.0623779 0.11242676 2.0646973 0.07217407 3.0922852 -0.18597412c9.170959 -2.3675232 18.524841 -3.0005188 27.616516 -2.0383606c19.299072 2.0423584 37.406677 11.271698 50.015625 26.334167c15.711975 18.76941 20.280945 43.629913 12.851929 66.04578l0 0l-43.023804 -51.398315c-1.4161377 -1.6917114 -3.4342651 -2.6750793 -5.538086 -2.897705c-2.1037598 -0.22265625 -4.295532 0.31521606 -6.064148 1.6698914l-51.71289 39.61023c-3.619873 2.772644 -4.190735 7.7069397 -1.2922974 11.169403l43.026123 51.39853c-4.908142 0.40344238 -9.802368 0.34020996 -14.621338 -0.1697998zm-1.8779907 15.744263c11.125732 1.1773682 22.576477 0.39941406 33.793823 -2.5101318c2.6870728 -0.6699829 4.833557 -2.6464233 5.7423096 -5.19281c0.8237915 -2.4833374 0.3106079 -5.3287354 -1.4448853 -7.423218l-46.530273 -55.584625l38.74994 -29.747925l46.59851 55.666107c1.3768921 1.6448059 3.3428345 2.6721802 5.4768677 2.8980103c0.5858154 0.0619812 1.185791 0.062469482 1.7883301 1.8310547E-4c2.7877808 -0.21817017 5.1968384 -1.7999573 6.5444946 -4.1535645c16.827148 -30.672394 13.086487 -68.00064 -9.574219 -95.06836c-15.356384 -18.344604 -37.512695 -29.616333 -61.117065 -32.11429c-9.356689 -0.99017334 -18.943604 -0.6001892 -28.4198 1.2735901l-58.124207 -69.5155l90.454346 -69.28476l54.9964 -22.228119c1.5336304 -0.6457672 2.8811035 -1.6758728 3.72406 -2.9822083l28.43988 -42.145157c1.9366455 -2.806717 1.7577515 -6.568863 -0.46881104 -9.228683l-25.895935 -30.934952c-1.3479004 -1.6102295 -3.3779297 -2.6331177 -5.5026245 -2.8579712c-1.2878418 -0.1362915 -2.6032715 -0.054901123 -3.807129 0.40516663l-49.136414 17.340363c-1.5228271 0.57263184 -2.9387817 1.5234528 -3.8561401 2.82193l-34.699158 46.477448l-90.462585 69.35593l-61.165222 -73.06735c13.955536 -29.729294 9.5503845 -64.62939 -11.9626465 -90.32867c-15.374786 -18.36908 -37.555634 -29.672638 -61.13907 -32.16839c-11.069916 -1.1714859 -22.519928 -0.400177 -33.749176 2.4495468c-2.6953125 0.74115753 -4.835602 2.6439896 -5.6679077 5.200691c-0.90875244 2.5463638 -0.3847351 5.3186264 1.3684082 7.412895l46.59851 55.66613l-38.815826 29.666672l-46.532623 -55.584877c-1.4055481 -1.6815948 -3.4317322 -2.7175827 -5.6168823 -2.9488297c-0.53930664 -0.0570755 -1.0866089 -0.065475464 -1.6375122 -0.022483826c-2.798584 0.29131317 -5.282013 1.8652191 -6.552948 4.2269363c-16.829498 30.67215 -13.086273 67.99841 9.503632 94.9866c15.408112 18.406372 37.548676 29.69217 61.13907 32.18866c9.345032 0.98895264 18.91803 0.59747314 28.391663 -1.2743378l155.57791 185.85175c-14.029907 29.721436 -9.550415 64.629395 11.9626465 90.328705c15.342529 18.383667 37.456482 29.655396 61.02826 32.149902z"/><path fill="#fff" fill-rule="evenodd" d="m224.91132 146.85184l186.07288 -142.48677l172.98969 206.64662l-186.0729 142.48676z"/><path fill="#fff" fill-rule="evenodd" d="m444.23016 388.98752l186.07294 -142.48677l172.98962 206.64662l-186.07288 142.48679z"/><path fill="#fff" fill-rule="evenodd" d="m463.5643 283.27298l35.370087 0l0 43.338562l-35.370087 0z"/><path fill="#fff" fill-rule="evenodd" d="m204.80455 92.81889c-29.990494 0 -57.24536 5.0659637 -81.76461 15.197876c-24.519249 10.13192 -43.161987 24.992065 -55.928207 44.580444c-12.766224 19.520828 -19.149334 40.527664 -19.149334 63.020523c0 20.466476 5.2010574 38.97412 15.603161 55.52292c10.469658 16.481232 26.342995 30.294434 47.620033 41.439514c16.413712 8.71347 45.08705 18.001068 86.02002 27.862793c40.932953 9.794189 67.37727 17.021606 79.33293 21.682312c18.64273 7.0923157 32.016876 15.873322 40.122406 26.342957c8.10556 10.4021 12.158325 22.594177 12.158325 36.576233c0 13.779419 -4.221649 26.51184 -12.664917 38.197327c-8.375702 11.61792 -21.17572 20.770447 -38.399963 27.457489c-17.224274 6.6870728 -37.08284 10.030609 -59.575714 10.030609c-25.329803 0 -48.126633 -4.390503 -68.39047 -13.171478c-20.26384 -8.848572 -35.22531 -20.398956 -44.884407 -34.651184c-9.591553 -14.319794 -15.704483 -32.624756 -18.338783 -54.914978l-55.62425 4.863312c0.8105545 29.787842 8.949867 56.50232 24.41793 80.14346c15.535618 23.573578 36.913975 41.23694 64.13507 52.98993c27.288643 11.753052 61.09548 17.629517 101.42054 17.629517c31.814224 0 60.420013 -5.80896 85.81738 -17.42688c25.464874 -11.685486 44.985718 -27.997864 58.5625 -48.937164c13.576782 -21.006836 20.365173 -43.364594 20.365173 -67.07327c0 -23.911316 -6.180481 -45.0195 -18.541443 -63.324493c-12.360931 -18.372528 -31.510254 -33.53665 -57.447998 -45.49231c-17.832184 -8.10553 -50.727142 -17.561981 -98.684906 -28.369354c-47.890213 -10.874939 -77.5092 -21.479675 -88.85695 -31.814224c-11.550392 -10.334564 -17.325584 -23.506058 -17.325584 -39.51448c0 -18.440094 8.139305 -34.17833 24.41793 -47.214737c16.34616 -13.103958 42.351425 -19.655914 78.01579 -19.655914c34.245895 0 60.11606 7.1936493 77.610535 21.580978c17.561981 14.387314 27.862762 35.664352 30.902344 63.831085l56.536133 -4.255417c-1.0131836 -26.140335 -8.3081665 -49.545074 -21.884949 -70.21419c-13.576782 -20.669113 -32.996307 -36.306038 -58.258545 -46.910774c-25.194733 -10.672287 -54.307114 -16.00843 -87.33717 -16.00843z"/><path fill-rule="evenodd" stroke="#000" stroke-linecap="butt" stroke-linejoin="round" stroke-width="12" d="m204.80455 92.81889c-29.990494 0 -57.24536 5.0659637 -81.76461 15.197876c-24.519249 10.13192 -43.161987 24.992065 -55.928207 44.580444c-12.766224 19.520828 -19.149334 40.527664 -19.149334 63.020523c0 20.466476 5.2010574 38.97412 15.603161 55.52292c10.469658 16.481232 26.342995 30.294434 47.620033 41.439514c16.413712 8.71347 45.08705 18.001068 86.02002 27.862793c40.932953 9.794189 67.37727 17.021606 79.33293 21.682312c18.64273 7.0923157 32.016876 15.873322 40.122406 26.342957c8.10556 10.4021 12.158325 22.594177 12.158325 36.576233c0 13.779419 -4.221649 26.51184 -12.664917 38.197327c-8.375702 11.61792 -21.17572 20.770447 -38.399963 27.457489c-17.224274 6.6870728 -37.08284 10.030609 -59.575714 10.030609c-25.329803 0 -48.126633 -4.390503 -68.39047 -13.171478c-20.26384 -8.848572 -35.22531 -20.398956 -44.884407 -34.651184c-9.591553 -14.319794 -15.704483 -32.624756 -18.338783 -54.914978l-55.62425 4.863312c0.8105545 29.787842 8.949867 56.50232 24.41793 80.14346c15.535618 23.573578 36.913975 41.23694 64.13507 52.98993c27.288643 11.753052 61.09548 17.629517 101.42054 17.629517c31.814224 0 60.420013 -5.80896 85.81738 -17.42688c25.464874 -11.685486 44.985718 -27.997864 58.5625 -48.937164c13.576782 -21.006836 20.365173 -43.364594 20.365173 -67.07327c0 -23.911316 -6.180481 -45.0195 -18.541443 -63.324493c-12.360931 -18.372528 -31.510254 -33.53665 -57.447998 -45.49231c-17.832184 -8.10553 -50.727142 -17.561981 -98.684906 -28.369354c-47.890213 -10.874939 -77.5092 -21.479675 -88.85695 -31.814224c-11.550392 -10.334564 -17.325584 -23.506058 -17.325584 -39.51448c0 -18.440094 8.139305 -34.17833 24.41793 -47.214737c16.34616 -13.103958 42.351425 -19.655914 78.01579 -19.655914c34.245895 0 60.11606 7.1936493 77.610535 21.580978c17.561981 14.387314 27.862762 35.664352 30.902344 63.831085l56.536133 -4.255417c-1.0131836 -26.140335 -8.3081665 -49.545074 -21.884949 -70.21419c-13.576782 -20.669113 -32.996307 -36.306038 -58.258545 -46.910774c-25.194733 -10.672287 -54.307114 -16.00843 -87.33717 -16.00843z"/><path fill="#000" fill-rule="evenodd" d="m512.0284 342.0244l-0.0013427734 -19.49469l91.966064 0c0.59246826 0 1.1862183 -0.08444214 1.7370605 -0.21176147l44.11737 -12.502319l32.67517 10.892578l0 23.138977l-32.716736 10.934174l-44.075806 -12.460754c-0.5508423 -0.21044922 -1.1433105 -0.2962036 -1.7799072 -0.25463867l-91.921875 -0.04156494zm-73.933014 191.34802c-10.79126 -10.79126 -17.143127 -25.577606 -17.143127 -41.44876c-0.042877197 -23.267609 13.817139 -44.330444 35.13333 -53.696472c2.3736572 -1.017273 3.900238 -3.3052063 3.8989258 -5.933502l0 -203.7633c-0.02859497 -1.75914 -0.7249756 -3.4013367 -1.9150391 -4.5914154c-0.55737305 -0.5573578 -1.2251587 -1.0172882 -1.9838867 -1.3420868c-6.8377686 -2.9842987 -12.899902 -7.1729584 -17.979828 -12.252869c-10.7873535 -10.787369 -17.153503 -25.595795 -17.152191 -41.44229c-0.042877197 -19.790909 9.915588 -37.97339 26.019318 -48.73736l-0.04156494 54.120003c0.02078247 1.800705 0.76394653 3.4325104 1.9449158 4.613495c1.1809998 1.1809845 2.801117 1.9124451 4.581024 1.9124451l52.08673 -0.042877197c1.6941833 0 3.3480835 -0.63531494 4.5771484 -1.8643646c1.2290344 -1.229065 1.9059143 -2.92453 1.9059143 -4.618698l0.0013427734 -54.077133c3.2103271 2.1424026 6.1764526 4.583626 8.868408 7.275589c10.776978 10.776978 17.152222 25.5737 17.152222 41.37732c0 23.307877 -13.774292 44.370712 -35.13333 53.693863c-2.3736572 1.0172882 -3.8989258 3.3922424 -3.8989258 6.0192566l0 203.7633c0 1.6941833 0.7210388 3.3480835 1.9072266 4.5342407c0.59375 0.59375 1.229065 1.0601807 1.9916992 1.3992615c6.8390503 2.9855957 12.899872 7.172943 17.98111 12.254181c10.786072 10.786041 17.152222 25.594482 17.152222 41.44226c0 19.748047 -9.959778 37.92923 -26.021973 48.65164l0 0l0.0013427734 -54.07715c0 -1.7799072 -0.7327881 -3.4013367 -1.9085693 -4.577118c-1.1757812 -1.1757812 -2.7958984 -1.9072571 -4.575836 -1.9072571l-52.043854 0c-3.6429749 0 -6.52594 2.882965 -6.52594 6.5259705l0 54.0784c-3.216858 -2.1514893 -6.185547 -4.595276 -8.878815 -7.288574zm-9.2335205 9.171143c6.218048 6.2180176 13.63916 11.342102 22.011261 14.985107c1.9916992 0.8899536 4.3224792 0.6768799 6.186859 -0.50927734c1.7799072 -1.1875 2.9258423 -3.2636108 2.92453 -5.468384l0 -58.482758l39.032257 -0.042877197l0 58.56848c0 1.7305908 0.6781616 3.3546143 1.8708496 4.547241c0.32739258 0.3274536 0.69506836 0.6223755 1.0965271 0.8782959c1.8215027 1.229065 4.110718 1.3979492 6.145294 0.5508423c26.063507 -11.400574 42.931183 -37.167847 42.9299 -65.64789c0 -19.301086 -7.800476 -37.40692 -20.992676 -50.59912c-5.22937 -5.2293396 -11.30835 -9.686951 -18.081177 -13.138947l0.04156494 -73.10669l91.033264 0l45.134644 12.755676c1.2719116 0.3390808 2.6270142 0.34039307 3.8144531 -0.0831604l39.073853 -13.053192c2.628296 -0.8483887 4.449768 -3.3480835 4.449768 -6.146576l0 -32.547882c0 -1.6941528 -0.71972656 -3.3467712 -1.9072266 -4.5342407c-0.7197876 -0.7197571 -1.5681763 -1.3135071 -2.5425415 -1.6097107l-39.032288 -13.011627c-1.2277222 -0.38067627 -2.5841064 -0.46643066 -3.8131714 -0.08444214l-45.135925 12.756958l-91.07483 0.04156494l0 -76.877c23.818481 -12.2061 39.032288 -36.743027 39.032288 -63.78224c0.0012817383 -19.32579 -7.7979126 -37.464096 -20.978394 -50.644608c-6.1868896 -6.1868515 -13.604065 -11.314842 -21.95282 -15.002007c-2.0332642 -0.8483887 -4.3224792 -0.67948914 -6.1452637 0.5508652c-1.8643799 1.1861801 -2.966095 3.220749 -2.966095 5.424217l0 58.568504l-39.030945 -0.0415802l-0.0013122559 -58.484055c0.0013122559 -1.7682266 -0.7093811 -3.4273224 -1.9306335 -4.6485825c-0.30142212 -0.3014145 -0.63272095 -0.57554626 -0.9925842 -0.81850433c-1.8656921 -1.1874771 -4.196472 -1.3979492 -6.1881714 -0.507988c-26.064789 11.399292 -42.92987 37.166573 -42.931183 65.56086c0 19.366074 7.7836 37.47319 20.968018 50.657608c5.222809 5.222824 11.294037 9.672638 18.06424 13.124634l0 195.54189c-23.860046 12.164551 -39.032257 36.743042 -39.032257 63.782257c-0.028564453 19.319275 7.7459106 37.404327 20.919922 50.57834z"/><path fill="#fff" fill-rule="evenodd" d="m598.55646 293.33597l119.87396 0l0 86.89761l-119.87396 0z"/><path fill="#fff" fill-rule="evenodd" d="m512.0525 307.09973l119.87402 0l0 73.13385l-119.87402 0z"/><path fill="#000" fill-opacity="0" fill-rule="evenodd" d="m507.57468 338.4294l36.44815 -36.44812l0 0c4.7747803 -4.7747803 52.641907 35.35083 106.914185 89.62314c54.272278 54.272278 94.39789 102.139404 89.62311 106.914185l-36.44812 36.44812l0 0c-4.7747803 4.7748413 -52.641907 -35.35083 -106.914185 -89.62311c-54.272278 -54.272278 -94.39795 -102.139404 -89.62314 -106.914215z"/><path fill-rule="evenodd" stroke="#000" stroke-linecap="butt" stroke-linejoin="round" stroke-width="12" d="m507.57468 338.4294l36.44815 -36.44812l0 0c4.7747803 -4.7747803 52.641907 35.35083 106.914185 89.62314c54.272278 54.272278 94.39789 102.139404 89.62311 106.914185l-36.44812 36.44812l0 0c-4.7747803 4.7748413 -52.641907 -35.35083 -106.914185 -89.62311c-54.272278 -54.272278 -94.39795 -102.139404 -89.62314 -106.914215z"/><path fill="#fff" fill-rule="evenodd" d="m460.0 300.43832l38.92914 0l0 92.47244l-38.92914 0z"/><path fill="#fff" fill-rule="evenodd" d="m407.9475 297.43045l38.92914 0l0 92.47244l-38.92914 0z"/><path fill="#fff" fill-rule="evenodd" d="m539.1064 265.7012l10.992126 14.299225l-27.055115 20.75589l-10.992126 -14.299194z"/><path fill="#fff" fill-rule="evenodd" d="m539.80194 272.7012l10.992126 14.299225l-27.055115 20.75589l-10.992126 -14.299194z"/><path fill="#fff" fill-rule="evenodd" d="m516.7775 285.9004l6.8031006 8.818909l-4.724365 3.6220398l-6.8031616 -8.818878z"/><path fill="#fff" fill-rule="evenodd" d="m518.0051 286.54663l0.03149414 11.149597l-5.952759 0l-0.03149414 -11.149597z"/><path fill="#fff" fill-rule="evenodd" d="m540.3912 294.68277l-11.62207 13.763763l-3.9055176 -3.3385925l11.62207 -13.763763z"/></g></svg>